<mxfile host="app.diagrams.net" modified="2023-03-17T04:39:47.321Z" agent="5.0 (Linux; Android 11; Lenovo TB-X306X) AppleWebKit/537.36 (KHTML, like Gecko) Chrome/110.0.0.0 Safari/537.36" etag="7X4_PF1wb_j6zZzbhRng" version="21.0.6" type="github">
  <diagram id="eTc2Wr0QtTlxUZ8TNzNj" name="PÃ¡gina-1">
    <mxGraphModel dx="4367" dy="5400" grid="0" gridSize="10" guides="1" tooltips="1" connect="1" arrows="1" fold="1" page="0" pageScale="1" pageWidth="827" pageHeight="1169" math="0" shadow="0">
      <root>
        <mxCell id="0" />
        <mxCell id="1" parent="0" />
      </root>
    </mxGraphModel>
  </diagram>
</mxfile>
